<svg width="189" height="38" viewBox="0 0 189 38" fill="none" xmlns="http://www.w3.org/2000/svg">
<path d="M0.277 25.2043L2.6664 24.823V2.7388L0 2.3922L0.1385 0H16.8292L16.4137 6.6911L13.0894 6.5871L12.8816 2.3922H7.7221V12.3421H9.9729L10.4923 10.054L12.8124 10.1233V16.9878H10.4923L9.9383 14.6303H7.6874V25.1697H12.8816L13.3664 20.5934L16.8639 20.6974L17.1409 27.6658H0.1731L0.277 25.2043ZM18.6989 27.7006L18.8028 25.6551L20.6727 25.2738V11.3368L18.4912 11.1288V9.0487L23.9624 8.2513L24.3779 9.43V10.2274C25.6938 8.8407 27.2867 8.0086 29.3297 8.0086C32.3078 8.0086 34.524 9.8114 34.524 13.3823V25.2391L36.4978 25.6204L36.3939 27.6659H29.8838V14.4224C29.8838 12.5156 29.1912 11.4408 27.4598 11.4408C26.8712 11.4408 26.4556 11.5448 26.0054 11.7182C25.7284 11.9609 25.4514 12.3076 25.209 12.6196V25.3084L27.1828 25.6898L27.0443 27.7352H18.6989V27.7006ZM123.31 27.7006L123.38 25.6551L125.25 25.2738V11.3368L123.068 11.1288V9.0487L128.539 8.2513L128.955 9.43V10.2274C130.271 8.8407 131.864 8.0086 133.907 8.0086C136.885 8.0086 139.101 9.8114 139.101 13.3823V25.2391L141.075 25.6204L140.971 27.6659H134.495V14.4224C134.495 12.5156 133.803 11.4408 132.071 11.4408C131.483 11.4408 131.067 11.5448 130.617 11.7182C130.34 11.9609 130.063 12.3076 129.82 12.6196V25.3084L131.794 25.6898L131.656 27.7352H123.31V27.7006ZM46.817 27.3192C46.0552 27.6312 44.7047 27.9779 42.9387 27.9779C40.6186 27.9779 38.4717 26.9378 38.4717 23.5403V11.3368L36.2555 10.9901L36.3593 8.5633L38.8526 8.4593L39.926 4.7497L43.1118 4.611V8.5979H46.54L46.2976 11.0248L43.1464 11.3715V23.5749C43.1464 24.5803 43.7005 25.239 44.7393 25.239H46.6093L46.817 27.3192ZM176.43 27.7005L176.499 25.6897L178.265 25.2736V11.3367L176.188 11.1287V9.0486L181.867 8.2512L182.247 9.6033V10.054C183.736 8.9446 185.745 8.2165 188.169 8.2165L189 8.9446L188.411 14.2142L185.295 14.1102L184.983 11.3021C184.256 11.4061 183.563 11.6141 182.975 12.0301V25.3083L184.948 25.7243L184.81 27.7351H176.43V27.7005ZM94.881 27.7005L94.985 25.6897L96.751 25.2736V11.3367L94.673 11.1287V9.0486L100.352 8.2512L100.733 9.6033V10.054C102.222 8.9446 104.23 8.2165 106.654 8.2165L107.485 8.9446L106.827 14.2142L103.711 14.1102L103.399 11.3021C102.672 11.4061 101.979 11.6141 101.391 12.0301V25.3083L103.365 25.7243L103.226 27.7351H94.881V27.7005ZM48.2021 27.7005L48.306 25.6897L50.072 25.2736V11.3367L47.9943 11.1287V9.0486L53.6733 8.2512L54.0542 9.6033V10.054C55.5432 8.9446 57.5517 8.2165 59.941 8.2165L60.7721 8.9446L60.1834 14.2142L57.0669 14.1102L56.7552 11.3021C56.028 11.4061 55.3355 11.6141 54.7468 12.0301V25.3083L56.7206 25.7243L56.5821 27.7351H48.2021V27.7005ZM66.1393 19.2066C66.1393 22.5348 67.5937 25.1003 70.4678 25.1003C71.9568 25.1003 73.1342 24.7883 74.5193 24.1296L75.3158 25.967C73.896 27.1111 71.8183 27.9778 69.2212 27.9778C64.1655 27.9778 61.2567 23.6095 61.2567 17.9932C61.2567 13.2089 63.3691 7.9738 69.1519 7.9738C74.2076 7.9738 76.1122 12.6541 76.1122 17.8545L75.6274 19.1026L66.1393 19.2066ZM66.0701 16.9878L71.8876 16.7104C71.7837 14.3876 71.2989 10.7127 69.0134 10.7127C68.4594 10.7127 68.0785 10.8167 67.3859 11.1634C66.451 12.7582 66.0701 15.6357 66.0701 16.9878ZM146.615 19.2066C146.615 22.5348 148.069 25.1003 150.943 25.1003C152.432 25.1003 153.61 24.7883 154.995 24.1296L155.791 25.967C154.372 27.1111 152.294 27.9778 149.697 27.9778C144.641 27.9778 141.732 23.6095 141.732 17.9932C141.732 13.2089 143.845 7.9738 149.628 7.9738C154.683 7.9738 156.588 12.6541 156.588 17.8545L156.103 19.1026L146.615 19.2066ZM146.546 16.9878L152.363 16.7104C152.259 14.3876 151.775 10.7127 149.489 10.7127C148.935 10.7127 148.554 10.8167 147.862 11.1634C146.927 12.7582 146.546 15.6357 146.546 16.9878ZM112.818 19.2066C112.818 22.5348 114.273 25.1003 117.147 25.1003C118.636 25.1003 119.813 24.7883 121.198 24.1296L121.995 25.967C120.575 27.1111 118.497 27.9778 115.9 27.9778C110.844 27.9778 107.936 23.6095 107.936 17.9932C107.936 13.2089 110.048 7.9738 115.831 7.9738C120.886 7.9738 122.791 12.6541 122.791 17.8545L122.306 19.1026L112.818 19.2066ZM112.749 16.9878L118.566 16.7104C118.463 14.3876 117.978 10.7127 115.692 10.7127C115.138 10.7127 114.757 10.8167 114.065 11.1634C113.13 12.7582 112.714 15.6357 112.749 16.9878ZM169.677 27.7005L169.193 26.0364C167.911 27.2498 166.665 27.9778 164.726 27.9778C161.748 27.9778 159.081 26.4871 159.081 22.3615V10.8514L156.9 10.6434V8.8059L163.202 8.0779L163.687 9.742V21.8068C163.687 23.9216 164.552 25.031 166.249 25.031C166.734 25.031 167.357 24.9616 167.911 24.7536C168.223 24.4416 168.535 24.0603 168.777 23.6789V10.8514L166.526 10.6434V8.8059L172.898 8.0779L173.383 9.742V25.2737L175.356 25.655L175.114 27.7005H169.677ZM85.566 25.2044C84.562 25.2044 83.765 25.0311 83.142 24.6844V12.4462C83.419 12.0302 83.731 11.6489 84.042 11.3022C84.631 11.0942 85.15 11.0248 85.774 11.0248C88.371 11.0248 88.821 13.6597 88.821 18.3746C88.821 22.9163 88.128 24.1643 87.955 24.6844C87.228 25.0311 86.466 25.2044 85.566 25.2044ZM93.323 17.5426C93.323 11.6835 91.591 8.0086 87.263 8.0086C84.389 8.0086 83.038 9.6727 82.484 10.3661V9.7074L81.999 8.0433L76.3548 8.8407V10.8515L78.5364 11.1288V34.773L76.6665 35.1544L76.5626 37.1305H84.908L85.046 35.1544L83.073 34.773V27.2845C83.869 27.7352 84.977 28.0126 86.189 28.0126C93.253 28.0126 93.323 20.8361 93.323 17.5426Z" fill="#949CB2"/>
</svg>
