<svg width="107" height="28" viewBox="0 0 107 28" fill="none" xmlns="http://www.w3.org/2000/svg">
<path d="M11.2048 2.609H13.5268C14.9409 2.3988 16.3851 2.5836 17.7025 3.1431C19.3551 4.1459 20.5539 5.7603 21.043 7.642C21.3892 8.628 21.3892 8.628 22.2244 8.2788H22.8762V0.4725H1.02028V1.8489H1.91648C2.30598 1.8461 2.69108 1.9315 3.04358 2.0985C3.39608 2.2656 3.70697 2.5102 3.95337 2.8144C4.78847 4.1702 4.93108 5.6904 4.93108 13.5994C4.93108 22.0015 4.74777 24.0558 3.95337 25.1034C3.75727 25.3728 3.50337 25.594 3.21067 25.7505C2.91787 25.907 2.59388 25.9948 2.26278 26.0073C1.02028 26.2333 1.02028 26.2128 1.02028 26.7674C0.951575 26.9529 0.951575 27.1571 1.02028 27.3426H14.8101C14.9013 27.1612 14.9489 26.9606 14.9489 26.7571C14.9489 26.5537 14.9013 26.3531 14.8101 26.1717C14.4761 26.078 14.1357 26.0093 13.7916 25.9662C13.4194 25.9216 13.0515 25.846 12.6917 25.7403C12.1764 25.3609 11.7682 24.8524 11.5074 24.2651C11.2466 23.6779 11.1423 23.0322 11.2048 22.3918C11.0011 21.0359 10.8992 18.5503 10.8992 16.496V14.8731H11.714C12.7291 14.8418 13.7436 14.9524 14.7286 15.2018C15.2005 15.4959 15.6022 15.8914 15.905 16.3601C16.2078 16.8289 16.4042 17.3593 16.4803 17.9134L16.6636 18.5503H17.9061V9.4497H16.7655L16.5822 10.3331C16.505 10.8998 16.2972 11.4404 15.9752 11.9113C15.6533 12.3823 15.2263 12.7705 14.7286 13.0448C14.2466 13.1894 13.7387 13.2245 13.2417 13.1475H10.8992V10.9288C10.8992 8.628 11.0214 3.7799 11.1029 3.0198L11.2048 2.609ZM106.531 18.8995C105.569 17.3366 104.067 16.1879 102.315 15.6742C100.972 15.2509 99.731 14.5514 98.669 13.62C98.43 13.3869 98.251 13.0985 98.148 12.7798C98.045 12.4611 98.021 12.1219 98.078 11.7916C98.08 11.1439 98.336 10.5233 98.791 10.066C99.1 9.7403 99.49 9.5052 99.92 9.3858C100.351 9.2664 100.805 9.2672 101.236 9.3881C102.126 9.6441 102.931 10.1382 103.566 10.8181C104.201 11.498 104.641 12.3383 104.841 13.2502C105.167 14.1746 105.207 14.1746 105.798 13.9281L106.165 13.7843V8.6691L105.9 8.5459C103.895 7.8355 101.768 7.542 99.647 7.6831C97.82 7.7297 96.077 8.4623 94.758 9.7373C94.16 10.302 93.692 10.9918 93.385 11.7583C93.079 12.5247 92.943 13.3494 92.986 14.1746C92.998 15.4362 93.494 16.6441 94.371 17.5437C95.34 18.5051 96.53 19.2106 97.834 19.5979C100.991 20.8511 101.908 21.6522 101.908 23.1108C101.921 23.7259 101.727 24.3273 101.357 24.8163C100.987 25.3054 100.463 25.6529 99.871 25.8019C99.16 25.9595 98.423 25.9595 97.712 25.8019C96.78 25.4374 95.949 24.8539 95.287 24.1C94.624 23.3461 94.15 22.4435 93.903 21.4673L93.638 20.81H93.271C93.096 20.8231 92.924 20.8647 92.762 20.9332H92.558V26.7674H92.905C94.281 27.2291 95.701 27.5458 97.141 27.7124H99.178C100.062 27.7778 100.95 27.6945 101.806 27.4659C102.893 27.2636 103.909 26.7779 104.752 26.0571C105.595 25.3364 106.237 24.4056 106.613 23.3573C106.856 22.7718 106.981 22.1432 106.98 21.5084C107.06 20.6142 106.905 19.7144 106.531 18.8995ZM87.344 8.2788C86.123 7.762 84.8082 7.5112 83.4847 7.5431C82.1613 7.575 80.8595 7.8887 79.6648 8.4637C78.5418 9.0177 77.5464 9.803 76.743 10.769C75.9396 11.735 75.3459 12.8602 75.0003 14.0719C74.5597 15.3937 74.3731 16.7881 74.4503 18.1805C74.4358 18.938 74.4972 19.6951 74.6337 20.4402C74.9626 22.2722 75.8396 23.9589 77.1467 25.2735C78.4539 26.5882 80.1287 27.4679 81.9461 27.7946C83.1296 27.9449 84.3272 27.9449 85.511 27.7946C86.739 27.5763 87.914 27.123 88.973 26.4593C89.85 25.9639 90.591 25.2583 91.133 24.405C91.098 24.2711 91.037 24.1457 90.953 24.0362C90.869 23.9268 90.763 23.8356 90.644 23.7682C90.411 23.8531 90.192 23.9706 89.992 24.1174C88.979 24.7908 87.782 25.1283 86.57 25.0829C85.765 25.1378 84.9582 25.0114 84.2079 24.7129C83.4575 24.4145 82.7823 23.9514 82.2313 23.3573C81.805 22.958 81.4532 22.4849 81.1925 21.9604C80.5595 20.6833 80.2185 19.2793 80.1944 17.8518V17.0506H91.479V16.6398C91.504 16.2293 91.504 15.8177 91.479 15.4072C91.475 13.9567 91.09 12.5331 90.364 11.281C89.638 10.029 88.596 8.9932 87.344 8.2788ZM81.6609 15.3866H80.2351V14.1746C80.7036 11.0726 81.8646 9.2238 83.2905 9.2238C84.7163 9.2238 85.327 11.0521 85.592 14.4006V15.3456H84.37L81.6609 15.3866ZM52.3704 7.6009C51.6666 7.5734 50.9669 7.7215 50.3335 8.0323C48.9568 8.7066 47.8449 9.828 47.1763 11.2164L46.9115 11.7095V7.6009H46.8097C46.5653 7.6009 39.0287 9.1211 38.7843 9.2238C38.5399 9.3265 38.6214 9.347 38.6214 9.7168C38.6214 10.0866 38.6214 10.1482 38.7843 10.1687L39.5787 10.3331C39.8012 10.3386 40.0195 10.3951 40.2171 10.4983C40.4148 10.6015 40.5865 10.7488 40.7194 10.9288C41.2286 11.6067 41.3304 12.7982 41.3304 17.8723C41.431 20.1566 41.3356 22.4454 41.0453 24.7131C40.9769 25.0551 40.805 25.3672 40.5532 25.6064C40.3015 25.8455 39.9823 26 39.6398 26.0484L38.9473 26.1922H38.6825V26.7674C38.6086 26.959 38.6086 27.1716 38.6825 27.3632H50.0687V26.7674C50.1082 26.5708 50.1082 26.3683 50.0687 26.1717C49.3832 26.1447 48.7014 26.0553 48.0318 25.9046C47.6672 25.7123 47.3689 25.413 47.1762 25.0463C46.9835 24.6796 46.9054 24.2626 46.9523 23.8503C46.7893 22.6588 46.7078 19.1665 46.7486 16.496C46.7893 13.8254 46.7486 13.661 46.9726 13.4762C47.6542 12.9491 48.4977 12.6801 49.3558 12.7161C50.1647 12.7339 50.9589 12.9376 51.6779 13.3118C51.9271 13.4514 52.1945 13.5551 52.4722 13.62C52.4722 13.62 54.5091 8.6486 54.5091 8.4226C54.2485 8.1171 53.9164 7.882 53.543 7.7385C53.1695 7.595 52.7665 7.5477 52.3704 7.6009ZM38.6417 16.2289C38.5706 14.7609 38.1527 13.3313 37.4229 12.0592C36.693 10.7871 35.6723 9.7093 34.4457 8.9156C32.9881 8.1226 31.3664 7.6853 29.7109 7.6389C28.0553 7.5925 26.4121 7.9383 24.9131 8.6486C22.7937 9.7757 21.1934 11.6918 20.4523 13.9897C19.6867 16.5625 19.6867 19.3054 20.4523 21.8782C20.8536 23.2843 21.6037 24.564 22.6317 25.5965C23.9121 26.8565 25.5631 27.6638 27.337 27.8973C28.4756 27.9933 29.6203 27.9933 30.7589 27.8973C31.178 27.833 31.5929 27.7438 32.0015 27.6302C33.6594 27.1625 35.151 26.2282 36.3017 24.9367C37.4524 23.6452 38.2146 22.0499 38.4991 20.3375C38.7025 18.978 38.7503 17.5994 38.6417 16.2289ZM30.1682 26.5004C28.1314 27.1166 26.6037 25.124 26.0945 20.9332C25.9075 18.7392 25.9075 16.533 26.0945 14.339C26.5018 10.9699 27.5407 9.2649 29.1498 9.2649C29.4745 9.2446 29.7992 9.303 30.0969 9.4352C30.3945 9.5675 30.6565 9.7697 30.8608 10.0249C32.2255 11.4013 32.8977 14.1335 32.8977 18.2421C33.0672 20.5673 32.7048 22.9007 31.8385 25.0624C31.456 25.6928 30.8641 26.1659 30.1682 26.3976V26.5004ZM66.8324 8.0117C66.2576 7.9371 65.6757 7.9371 65.101 8.0117C63.9977 8.0108 62.9071 8.249 61.9031 8.7102L61.2716 8.9773V4.5194C61.382 3.015 61.382 1.5044 61.2716 0C61.0272 0 53.2463 1.4996 53.1241 1.5613C53.064 1.7129 53.064 1.8821 53.1241 2.0337C53.1241 2.4651 53.1241 2.4446 54.0407 2.65C54.298 2.7082 54.5452 2.8052 54.7739 2.9376C55.1715 3.3147 55.4362 3.8124 55.5276 4.3551C55.7595 5.9185 55.8346 7.5014 55.7517 9.08V27.1166L56.3016 27.2399C57.1164 27.4248 59.4181 27.8151 60.1717 27.8973C61.6766 28.018 63.1887 28.018 64.6936 27.8973C66.364 27.7252 67.9562 27.0967 69.2986 26.0795C70.641 25.0623 71.6828 23.6949 72.3116 22.1247C72.6865 21.1169 72.9462 20.0693 73.0856 19.0022C73.2069 17.5567 73.159 16.1019 72.943 14.6676C72.7245 13.06 72.021 11.559 70.9278 10.3684C69.8347 9.1777 68.4049 8.355 66.8324 8.0117ZM61.4957 26.1511C61.4957 25.8841 61.292 16.8863 61.3327 13.2913V10.4769L61.9234 10.3331C62.322 10.2755 62.7267 10.2755 63.1252 10.3331C63.566 10.2879 64.0093 10.3889 64.3881 10.6207C65.1488 11.1502 65.7804 11.8468 66.2356 12.658C66.6907 13.4693 66.9574 14.3742 67.0157 15.3045C67.1641 16.8004 67.1641 18.3075 67.0157 19.8034C66.8938 21.9775 66.0631 24.0502 64.6529 25.6992C64.2526 26.0826 63.7499 26.3397 63.2067 26.4387C62.7956 26.5108 62.3753 26.5108 61.9642 26.4387C61.5772 26.4387 61.5772 26.3155 61.5772 26.1511H61.4957Z" fill="#949CB2"/>
</svg>
