<svg width="25" height="18" viewBox="0 0 25 18" fill="none" xmlns="http://www.w3.org/2000/svg">
<path d="M24.6571 0.249951L14.7523 3.0901C14.503 3.16141 14.2768 3.29705 14.0965 3.4834C13.9162 3.66975 13.7881 3.90026 13.7251 4.1518L12.9615 7.2038C12.8984 7.4553 12.7703 7.6858 12.59 7.8721C12.4097 8.0585 12.1836 8.1941 11.9343 8.2654L2.4408 10.9775C2.1912 11.049 1.96487 11.185 1.78455 11.3718C1.60423 11.5587 1.4763 11.7897 1.41364 12.0416L0.125351 17.1628C0.114971 17.2048 0.115852 17.2488 0.127882 17.2904C0.139922 17.3319 0.162692 17.3696 0.193902 17.3995C0.225122 17.4295 0.263671 17.4507 0.305691 17.4611C0.347711 17.4714 0.391711 17.4705 0.433261 17.4584L10.3356 14.6281C10.5849 14.5568 10.8111 14.4211 10.9914 14.2348C11.1717 14.0484 11.2998 13.8179 11.3628 13.5664L12.1264 10.5144C12.1895 10.2629 12.3176 10.0324 12.4979 9.846C12.6782 9.6597 12.9043 9.524 13.1536 9.4527L22.6471 6.7431C22.8992 6.6719 23.1279 6.5349 23.3097 6.3462C23.4915 6.1575 23.6199 5.9238 23.6816 5.6692L24.9625 0.548001C24.9733 0.506091 24.9727 0.462091 24.961 0.420451C24.9493 0.378801 24.9269 0.340961 24.8959 0.310751C24.865 0.280541 24.8266 0.259011 24.7847 0.248341C24.7427 0.237661 24.6987 0.238221 24.6571 0.249951Z" fill="white"/>
</svg>
