<svg width="1246" height="232" viewBox="0 0 1246 232" fill="none" xmlns="http://www.w3.org/2000/svg">
<path d="M132.436 62.3075C131.266 51.9197 126.437 43.8729 117.952 38.1669C109.466 32.3878 98.7854 29.4982 85.9104 29.4982C76.6931 29.4982 68.7194 30.9613 61.9892 33.8874C55.2591 36.7404 50.0287 40.6907 46.2978 45.7383C42.6402 50.7127 40.8113 56.3821 40.8113 62.7465C40.8113 68.0866 42.0549 72.6953 44.5422 76.5724C47.1025 80.4496 50.431 83.7049 54.5276 86.3384C58.6973 88.8988 63.1597 91.0568 67.9147 92.8125C72.6696 94.495 77.2417 95.8849 81.6309 96.9822L103.577 102.688C110.746 104.444 118.098 106.821 125.633 109.821C133.168 112.82 140.154 116.77 146.591 121.672C153.029 126.573 158.223 132.645 162.173 139.887C166.196 147.129 168.208 155.798 168.208 165.893C168.208 178.621 164.916 189.924 158.332 199.799C151.822 209.675 142.348 217.466 129.912 223.172C117.549 228.878 102.589 231.731 85.0326 231.731C68.2073 231.731 53.6498 229.061 41.36 223.721C29.0702 218.38 19.4505 210.809 12.501 201.006C5.55139 191.131 1.71083 179.426 0.979299 165.893H34.9956C35.654 174.013 38.2875 180.779 42.8962 186.193C47.578 191.533 53.54 195.52 60.7822 198.153C68.0976 200.714 76.1078 201.994 84.8131 201.994C94.3962 201.994 102.919 200.494 110.38 197.495C117.915 194.423 123.84 190.18 128.157 184.766C132.473 179.28 134.631 172.879 134.631 165.564C134.631 158.907 132.729 153.457 128.925 149.214C125.194 144.971 120.11 141.46 113.672 138.68C107.308 135.9 100.102 133.449 92.0553 131.328L65.5006 124.086C47.5049 119.184 33.24 111.979 22.7059 102.469C12.2449 92.9588 7.01446 80.3764 7.01446 64.7216C7.01446 51.7734 10.5258 40.4712 17.5485 30.815C24.5713 21.1587 34.0812 13.6605 46.0784 8.32031C58.0755 2.90695 71.6089 0.200276 86.6785 0.200276C101.894 0.200276 115.318 2.87038 126.949 8.21058C138.654 13.5508 147.871 20.9027 154.601 30.2663C161.332 39.5568 164.843 50.2372 165.136 62.3075H132.436ZM272.254 231.402C255.648 231.402 241.346 227.854 229.349 220.758C217.425 213.589 208.208 203.53 201.697 190.582C195.26 177.561 192.041 162.308 192.041 144.825C192.041 127.56 195.26 112.344 201.697 99.1768C208.208 86.0092 217.279 75.7312 228.91 68.3427C240.615 60.9542 254.294 57.2599 269.949 57.2599C279.459 57.2599 288.677 58.8327 297.601 61.9783C306.526 65.1239 314.536 70.0618 321.632 76.7919C328.728 83.522 334.324 92.2638 338.421 103.017C342.518 113.698 344.566 126.683 344.566 141.972V153.603H210.585V129.023H312.415C312.415 120.391 310.659 112.747 307.148 106.09C303.636 99.3597 298.699 94.0561 292.334 90.179C286.043 86.3018 278.655 84.3633 270.169 84.3633C260.951 84.3633 252.905 86.631 246.028 91.1665C239.225 95.6289 233.958 101.481 230.227 108.723C226.569 115.892 224.741 123.683 224.741 132.096V151.299C224.741 162.564 226.716 172.147 230.666 180.048C234.689 187.949 240.286 193.984 247.455 198.153C254.624 202.25 263 204.298 272.583 204.298C278.801 204.298 284.47 203.42 289.591 201.665C294.712 199.836 299.138 197.129 302.868 193.545C306.599 189.96 309.452 185.534 311.427 180.267L342.481 185.864C339.994 195.008 335.531 203.018 329.094 209.895C322.73 216.698 314.719 222.001 305.063 225.805C295.48 229.536 284.543 231.402 272.254 231.402ZM447.13 231.402C430.524 231.402 416.223 227.854 404.226 220.758C392.302 213.589 383.084 203.53 376.574 190.582C370.136 177.561 366.917 162.308 366.917 144.825C366.917 127.56 370.136 112.344 376.574 99.1768C383.084 86.0092 392.155 75.7312 403.787 68.3427C415.491 60.9542 429.171 57.2599 444.826 57.2599C454.336 57.2599 463.553 58.8327 472.478 61.9783C481.402 65.1239 489.413 70.0618 496.509 76.7919C503.605 83.522 509.201 92.2638 513.297 103.017C517.394 113.698 519.442 126.683 519.442 141.972V153.603H385.462V129.023H487.291C487.291 120.391 485.536 112.747 482.024 106.09C478.513 99.3597 473.575 94.0561 467.211 90.179C460.92 86.3018 453.531 84.3633 445.045 84.3633C435.828 84.3633 427.781 86.631 420.905 91.1665C414.101 95.6289 408.834 101.481 405.103 108.723C401.446 115.892 399.617 123.683 399.617 132.096V151.299C399.617 162.564 401.592 172.147 405.542 180.048C409.566 187.949 415.162 193.984 422.331 198.153C429.5 202.25 437.876 204.298 447.459 204.298C453.677 204.298 459.347 203.42 464.467 201.665C469.588 199.836 474.014 197.129 477.745 193.545C481.476 189.96 484.329 185.534 486.304 180.267L517.357 185.864C514.87 195.008 510.408 203.018 503.97 209.895C497.606 216.698 489.596 222.001 479.939 225.805C470.356 229.536 459.42 231.402 447.13 231.402ZM627.295 228V3.27272H661.202V100.933H773.236V3.27272H807.252V228H773.236V130.011H661.202V228H627.295ZM918.513 231.402C902.712 231.402 888.922 227.781 877.145 220.538C865.367 213.296 856.223 203.164 849.712 190.143C843.201 177.122 839.946 161.906 839.946 144.495C839.946 127.012 843.201 111.723 849.712 98.6282C856.223 85.5337 865.367 75.3654 877.145 68.1232C888.922 60.881 902.712 57.2599 918.513 57.2599C934.314 57.2599 948.103 60.881 959.881 68.1232C971.659 75.3654 980.803 85.5337 987.314 98.6282C993.824 111.723 997.08 127.012 997.08 144.495C997.08 161.906 993.824 177.122 987.314 190.143C980.803 203.164 971.659 213.296 959.881 220.538C948.103 227.781 934.314 231.402 918.513 231.402ZM918.623 203.859C928.864 203.859 937.35 201.153 944.08 195.739C950.81 190.326 955.785 183.12 959.003 174.123C962.295 165.125 963.941 155.212 963.941 144.386C963.941 133.632 962.295 123.756 959.003 114.759C955.785 105.687 950.81 98.4087 944.08 92.9222C937.35 87.4357 928.864 84.6925 918.623 84.6925C908.308 84.6925 899.749 87.4357 892.946 92.9222C886.216 98.4087 881.205 105.687 877.913 114.759C874.694 123.756 873.085 133.632 873.085 144.386C873.085 155.212 874.694 165.125 877.913 174.123C881.205 183.12 886.216 190.326 892.946 195.739C899.749 201.153 908.308 203.859 918.623 203.859ZM1058.63 228L1009.03 59.4545H1042.94L1075.97 183.23H1077.62L1110.75 59.4545H1144.66L1177.58 182.681H1179.23L1212.04 59.4545H1245.94L1196.45 228H1162.99L1128.75 106.309H1126.23L1091.99 228H1058.63Z" fill="url(#paint0_linear_1_1032)"/>
<defs>
<linearGradient id="paint0_linear_1_1032" x1="620.1" y1="-46" x2="620.1" y2="278" gradientUnits="userSpaceOnUse">
<stop stop-color="#E4E8F2"/>
<stop offset="1" stop-color="#F7F9FC"/>
</linearGradient>
</defs>
</svg>
