<svg width="101" height="60" viewBox="0 0 101 60" fill="none" xmlns="http://www.w3.org/2000/svg">
<path d="M0.5 8.2546H8.4273V28.2546H13.2273V8.2546H21.1545V3.81825H0.5V8.2546ZM38.6092 23.7455H29.3728V17.9273H37.3728V13.4182H29.3728V8.2546H38.6092V3.81825H24.5728V28.2546H38.6092V23.7455ZM53.6638 24.2545C49.3001 24.2545 46.391 20.7636 46.391 16.0364C46.391 11.3091 49.3001 7.8909 53.591 7.8909C56.8638 7.8909 58.682 9.3454 59.5547 11.7455H64.791C63.482 6.8 59.8456 3.38181 53.591 3.38181C46.4638 3.38181 41.3729 8.6909 41.3729 16.0364C41.3729 23.3818 46.4638 28.7636 53.591 28.7636C59.8456 28.7636 63.5547 25.4909 64.8638 20.1818H59.7729C59.0456 22.5091 57.082 24.2545 53.6638 24.2545ZM73.082 17.9273H83.5547V28.2546H88.3547V17.8546H93.882C94.537 18.6546 95.482 19.2364 96.646 19.2364C98.609 19.2364 100.209 17.5637 100.209 15.6001C100.209 13.5637 98.609 11.9637 96.646 11.9637C95.482 11.9637 94.537 12.5455 93.882 13.3455H88.3547V0.181885H83.5547V13.3455H73.082V3.81825H68.282V28.2546H73.082V17.9273ZM0.5 38.9455H8.4273V58.9455H13.2273V38.9455H21.1545V34.5091H0.5V38.9455ZM27.5545 33.0546C25.8818 33.0546 24.5 34.3637 24.5 36.0364C24.5 37.7091 25.8091 39.0182 27.5545 39.0182C29.2273 39.0182 30.6091 37.7818 30.6091 36.0364C30.5364 34.3637 29.1545 33.0546 27.5545 33.0546ZM29.7364 41.2728H25.2273V58.9455H29.7364V41.2728ZM48.0635 50.2182L47.5544 51.6728L46.9726 50.2182L39.9908 34.5091H34.5362V58.9455H39.2635V43.4546L39.9908 45.6364L45.518 58.9455H49.5908L55.118 45.6364L55.8453 43.4546V58.9455H60.6453V34.5091H55.118L48.0635 50.2182ZM65.5909 58.9455H79.6273V54.4364H70.3909V48.6182H78.3909V44.1091H70.3909V38.9455H79.6273V34.5091H65.5909V58.9455ZM92.136 44.4001C89.1546 43.382 87.8455 42.7274 87.8455 40.9092C87.8455 39.2365 88.8637 38.291 90.609 38.291C92.282 38.291 93.518 39.382 93.591 41.3456H98.464C98.246 36.4729 95.336 34.0729 90.755 34.0729C85.9546 34.0729 83.0455 37.1274 83.0455 41.3456C83.0455 45.4183 85.6637 47.382 90.027 48.8365C93.082 49.8547 94.318 50.8001 94.318 52.4001C94.318 54.0001 93.155 55.1638 91.118 55.1638C88.6455 55.1638 87.4092 53.8547 87.2637 51.4547H82.391C82.5364 56.1092 85.4455 59.382 90.973 59.382C95.555 59.382 99.118 56.691 99.118 51.9638C99.191 48.3274 97.373 46.1456 92.136 44.4001Z" fill="#949CB2"/>
</svg>
