<svg width="198" height="29" viewBox="0 0 198 29" fill="none" xmlns="http://www.w3.org/2000/svg">
<path d="M35.5915 16.8183V28.4546H0.682373L0.682571 5.18188H12.3188V16.8183H35.5915ZM57.5841 1.69108H41.6035V6.30678H46.9563V20.7747H52.2314V6.30678H57.5841V1.69108ZM63.5961 6.15158C59.8338 6.15158 57.041 8.67288 57.041 13.6377C57.041 18.0207 59.4071 21.085 63.7121 21.085C65.9621 21.085 67.7851 20.5032 69.5311 19.4559L67.6691 16.3141C66.2341 17.051 65.2251 17.3226 63.9451 17.3226C62.6261 17.3226 61.6951 16.6244 61.5021 15.0341H69.9191C69.9571 14.8013 69.9571 14.491 69.9571 14.0644C69.9961 8.75038 67.5521 6.15158 63.5961 6.15158ZM61.5791 11.9698C61.7341 10.5347 62.3551 9.79768 63.4801 9.79768C64.9151 9.79768 65.4191 10.5347 65.6521 11.9698H61.5791ZM79.3051 17.0898C77.9861 17.0898 77.2881 15.9262 77.2881 13.6377C77.2881 11.388 77.9091 10.108 79.1891 10.108C80.2361 10.108 80.7021 10.6898 81.4001 11.9698L84.7741 9.40978C83.5331 7.39288 81.9821 6.15158 79.2661 6.15158C74.6891 6.15158 72.4401 9.17709 72.4401 13.5601C72.4401 18.3698 74.9611 21.0462 79.1501 21.0462C81.6711 21.0462 83.2231 20.0765 84.8911 17.6329L81.7881 15.1892C80.8571 16.5856 80.2361 17.0898 79.3051 17.0898ZM96.2171 6.15168C94.5101 6.15168 93.5021 6.73348 92.6091 7.39288V0.915283L87.6831 2.89348V20.8135H92.6091V12.6293C92.6091 10.845 93.2301 10.3408 94.2771 10.3408C95.2861 10.3408 95.9061 10.845 95.9061 12.668V20.8135H100.832V12.0474C100.832 8.28498 99.3201 6.15168 96.2171 6.15168ZM112.663 16.4692C110.374 16.4692 109.443 14.1419 109.443 11.2328C109.443 8.20738 110.413 5.99638 112.624 5.99638C114.369 5.99638 115.029 7.12128 115.688 8.90548L120.498 7.00488C119.179 3.39768 117.317 1.38068 112.624 1.38068C107.504 1.38068 103.897 5.10428 103.897 11.2328C103.897 16.8958 106.922 21.0849 112.585 21.0849C117.123 21.0849 119.257 18.6413 120.537 16.1589L116.076 13.7928C115.029 15.5771 114.331 16.4692 112.663 16.4692ZM128.45 7.50918V6.46188H123.524V20.7747H128.45V12.9783C128.45 11.2329 129.187 10.651 130.389 10.651C131.359 10.651 132.057 11.1553 132.677 11.8535L133.841 6.77228C133.259 6.42318 132.561 6.15158 131.514 6.15158C130.234 6.15158 129.264 6.69468 128.45 7.50918ZM144.353 14.6463C144.353 16.4305 143.732 16.9347 142.724 16.9347C141.715 16.9347 141.094 16.4305 141.094 14.6075V6.46198H136.168V15.2281C136.168 18.9905 137.681 21.085 140.823 21.085C142.491 21.085 143.538 20.5032 144.391 19.8438V20.8135H149.318V6.50078H144.391L144.353 14.6463ZM161.38 6.15158C159.674 6.15158 158.665 6.73348 157.773 7.39288V6.42318H152.847V20.7359H157.773V12.5516C157.773 10.7674 158.394 10.2632 159.441 10.2632C160.449 10.2632 161.07 10.7674 161.07 12.5904V20.7359H165.996V11.9698C165.996 8.28498 164.522 6.15158 161.38 6.15158ZM175.771 17.0898C174.452 17.0898 173.754 15.9262 173.754 13.6377C173.754 11.388 174.374 10.108 175.616 10.108C176.663 10.108 177.128 10.6898 177.827 11.9698L181.201 9.40978C179.96 7.39288 178.408 6.15158 175.693 6.15158C171.116 6.15158 168.867 9.17709 168.867 13.5601C168.867 18.3698 171.388 21.0462 175.577 21.0462C178.098 21.0462 179.65 20.0765 181.317 17.6329L178.214 15.1892C177.361 16.5856 176.702 17.0898 175.771 17.0898ZM192.682 6.15168C190.976 6.15168 189.967 6.73348 189.075 7.39288V0.915283L184.149 2.89348V20.8135H189.075V12.6293C189.075 10.845 189.696 10.3408 190.743 10.3408C191.751 10.3408 192.372 10.845 192.372 12.668V20.8135H197.298V12.0474C197.337 8.28498 195.824 6.15168 192.682 6.15168Z" fill="#949CB2"/>
</svg>
