<svg width="280" height="24" viewBox="0 0 280 24" fill="none" xmlns="http://www.w3.org/2000/svg">
<path d="M278.506 20.7036C277.692 20.7036 277.013 21.3906 277.013 22.3178C277.013 23.2446 277.692 23.9316 278.506 23.9316C279.321 23.9316 280 23.2446 280 22.3178C280 21.3906 279.321 20.7036 278.506 20.7036ZM224.468 23.8281H231.324V23.2104L230.579 23.0386C229.899 22.8667 229.593 22.4893 229.593 21.5274V12.189H231.189C232.174 12.189 232.683 12.4292 232.75 14.5239L232.92 18.9185C233.056 22.8667 234.176 23.9658 236.078 23.9658C238.012 23.9658 238.521 22.6265 238.521 20.7383V19.9483H237.808V20.5318C237.808 21.8027 237.639 22.6953 237.163 22.6953C236.722 22.6953 236.688 22.352 236.586 20.7725L236.383 17.7514C236.111 13.6997 235.602 12.292 232.649 11.7422C235.466 10.9873 237.197 8.8926 237.197 5.9053C237.197 2.0254 234.176 0.1714 231.291 0.1714H219.717V0.7896L220.361 0.9268C221.583 1.2016 221.617 1.854 221.617 4.6352V18.3003C221.617 21.3564 220.768 22.8325 218.833 22.8325C217.103 22.8325 216.152 21.9741 216.152 18.6436V2.4033C216.152 1.4419 216.457 1.1675 217.204 0.9956L218.121 0.7896V0.1714H211.027V0.7896L211.773 0.9956C212.452 1.2017 212.69 1.4765 212.69 2.4375V18.4033C212.69 22.0083 214.761 24 217.917 24C221.074 24 222.635 22.0083 222.635 18.3003V3.3989C222.635 1.5449 223.009 0.892599 224.502 0.892599C225.69 0.892599 226.2 1.3047 226.2 2.4375V21.5274C226.2 22.4893 225.894 22.8325 225.215 23.0044L224.468 23.2104V23.8281ZM270.02 2.4375C270.02 1.4765 270.326 1.1675 271.005 1.0298L271.921 0.8237V0.1714H264.861V0.7896L265.608 0.9956C266.287 1.2017 266.592 1.4765 266.592 2.4375V21.6655C266.592 22.5923 266.219 23.1074 265.166 23.1074C263.944 23.1074 263.775 22.6953 263.334 20.6699L258.989 0.103001H257.631L253.491 20.0171C253.015 22.2486 252.777 22.7641 251.861 23.0386L251.283 23.2104V23.8281H256.137V23.2104L255.425 23.0728C254.406 22.8667 254.135 22.3178 254.644 19.708L257.088 6.9697L259.769 20.4634C260.177 22.4204 260.143 22.7983 258.683 23.0728L257.971 23.2104V23.8281H275.961V16H275.316C274.976 19.605 274.264 23.0044 271.379 23.0044H270.02V2.4375ZM259.43 17.4419V16.5151H254.848L254.712 17.4419H259.43ZM240.49 2.8496V19.2617C240.49 21.7339 240.49 22.9013 239.268 23.1074L238.657 23.2104V23.8281H243.646V23.2104C241.474 22.9014 241.474 22.146 241.474 19.4678V3.8799L240.66 3.1245L248.976 23.8281H250.401V4.7383C250.401 1.9228 250.401 1.3047 251.759 0.9268L252.234 0.7896V0.1714H247.108V0.7896L247.686 0.9268C249.417 1.2358 249.417 1.9228 249.417 4.5322V16.4805L249.756 16.3775L243.443 0.1714H238.589V0.7896L239.064 0.9268C239.608 1.0986 239.913 1.7168 240.49 2.8496ZM229.593 0.9956H230.952C232.309 0.9956 233.565 1.8882 233.565 6.352C233.565 10.9185 232.615 11.3647 230.714 11.3647H229.593V0.9956ZM206.988 11.7768C206.988 21.6992 206.173 23.1074 204.408 23.1074C202.643 23.1074 201.862 21.6992 201.862 11.8452C201.862 2.3003 202.711 0.9268 204.408 0.9268C206.173 0.9268 206.988 2.3003 206.988 11.7768ZM210.688 11.9829C210.688 5.4248 208.617 0 204.408 0C200.165 0 198.162 5.4248 198.162 11.9829C198.162 18.5752 200.233 24 204.408 24C208.719 24 210.688 18.5752 210.688 11.9829ZM196.16 2.4375C196.16 1.4765 196.398 1.1675 197.076 0.9956L197.823 0.7896V0.1714H190.797V0.7896L191.645 0.9956C192.323 1.1675 192.698 1.4077 192.698 2.4033V18.9185C192.698 21.2188 192.493 23.0728 190.797 23.0728C189.71 23.0728 188.896 22.2144 188.93 21.5967C189.031 20.5318 190.797 20.601 190.932 18.8838C191.034 17.6479 190.253 17.1328 189.541 17.0303C188.488 16.8926 187.199 17.7852 187.164 19.5708C187.13 21.8711 188.624 23.9658 191.17 23.9658C193.987 23.9658 196.16 22.0429 196.16 18.3687V2.4375ZM82.7881 2.4375C82.7881 1.4765 83.0937 1.1675 83.7724 1.0298L84.689 0.8237V0.1714H77.6288V0.7896L78.3756 0.9956C79.0543 1.2017 79.3598 1.4765 79.3598 2.4375V21.6655C79.3598 22.5923 78.9863 23.1074 77.9339 23.1074C76.7122 23.1074 76.5085 22.6953 76.0673 20.6699L71.7224 0.103001H70.3649L66.2237 20.0171C65.7487 22.2486 65.5108 22.7641 64.5945 23.0386L64.0173 23.2104V23.8281H68.8714V23.2104L68.1584 23.0728C67.1404 22.8667 66.8686 22.3178 67.3779 19.708L69.8219 6.9009L72.5034 20.4634C72.8765 22.4204 72.8765 22.7983 71.4172 23.0728L70.7043 23.2104V23.8281H88.7284V16H88.0835C87.7441 19.605 87.0312 23.0044 84.146 23.0044H82.7881V2.4375ZM177.286 0.9956H178.034C180.139 0.9956 180.851 4.3946 181.089 8H181.733V0.1714H169.412V8H170.057C170.295 4.3946 171.008 0.9956 173.112 0.9956H173.859V21.5274C173.859 22.4893 173.553 22.8325 172.874 23.0044L171.992 23.2104V23.8281H179.324V23.2104L178.271 22.9702C177.626 22.7983 177.286 22.5923 177.286 21.5274V0.9956ZM161.775 11.9483L162.827 11.9829C164.354 12.0171 164.795 12.6011 165.102 16.3437H165.746V6.7983H165.102C164.728 9.7856 164.32 11.0557 162.861 11.0903L161.775 11.1245V0.9956H164.117C166.731 0.9956 167.308 4.3262 167.681 8H168.326V0.1714H156.616V0.7896L157.362 0.9956C158.142 1.2017 158.347 1.6826 158.347 2.4722V21.5274C158.347 22.4893 158.041 22.8325 157.362 23.0044L156.616 23.2105V23.8281H168.665V16H168.02C167.613 19.5708 167.172 23.0044 164.117 23.0044H161.775V11.9483ZM148.978 11.9483L150.03 11.9829C151.558 12.0171 151.999 12.6011 152.304 16.3437H152.949V6.7983H152.304C151.931 9.7856 151.524 11.0557 150.065 11.0903L148.978 11.1245V0.9956H151.32C153.934 0.9956 154.511 4.3946 154.884 8H155.529V0.1714H143.479V0.7896L144.566 0.9956C145.346 1.2017 145.55 1.6826 145.55 2.4722V21.5274C145.55 22.4893 145.244 22.8325 144.566 23.0044L143.819 23.2105V23.8281H155.868V16H155.224C154.816 19.5708 154.375 23.0044 151.32 23.0044H148.978V11.9483ZM135.027 0.9956H136.046C137.403 0.9956 138.659 1.8882 138.659 6.352C138.659 10.8496 137.709 11.3647 135.808 11.3647H135.027V0.9956ZM129.902 23.8281H136.759V23.2104L136.011 23.0386C135.333 22.8667 135.027 22.4893 135.027 21.5274V12.189H136.283C137.267 12.189 137.777 12.6011 137.845 14.5239L138.014 18.9185C138.15 22.8667 139.27 23.9658 141.171 23.9658C143.106 23.9658 143.615 22.6265 143.615 20.7383V19.9483H142.902V20.5318C142.902 21.8027 142.733 22.6953 142.257 22.6953C141.816 22.6953 141.782 22.352 141.68 20.7725L141.476 17.7514C141.205 13.5967 140.662 12.292 137.743 11.7422C140.56 10.9873 142.291 8.8926 142.291 5.9053C142.291 2.0254 139.27 0.1714 136.385 0.1714H129.902V0.7896L130.648 0.9956C131.328 1.2017 131.633 1.4765 131.633 2.4375V21.5274C131.633 22.4893 131.328 22.8325 130.648 23.0044L129.902 23.2104V23.8281ZM124.709 0.9956H125.455C127.559 0.9956 128.272 4.3946 128.51 8H129.155V0.1714H116.834V8H117.478C117.716 4.3946 118.429 0.9956 120.534 0.9956H121.28V21.5274C121.28 22.4893 120.974 22.8325 120.296 23.0044L119.413 23.2104V23.8281H126.575V23.2104L125.693 23.0044C124.81 22.7983 124.709 22.1118 124.709 21.5274V0.9956ZM116.867 17.6821C116.867 10.6436 109.23 8.7896 109.23 3.6738C109.23 2.5752 109.638 0.9268 111.334 0.9268C113.778 0.9268 114.695 4.1201 115.103 8H115.747V0.1714H115.34C115.17 0.9268 114.865 1.2705 114.424 1.2705C113.643 1.2705 113.235 0.0342007 111.369 0.0342007C108.484 0.0342007 106.515 2.4722 106.515 5.665C106.515 11.4678 114.152 13.9053 114.152 19.2617C114.152 21.6993 113.032 23.0728 111.504 23.0728C109.23 23.0728 107.737 20.3608 107.329 16H106.684V23.8281H107.092C107.431 22.6953 107.872 22.5923 108.246 22.5923C108.891 22.5923 109.57 23.9658 111.538 23.9658C114.559 23.9658 116.867 21.3222 116.867 17.6821ZM94.6344 2.4375C94.6344 1.4765 94.94 1.1675 95.6187 1.0298L96.535 0.8237V0.1714H89.4751V0.7896L90.2219 0.9956C90.9006 1.2017 91.2062 1.4765 91.2062 2.4375V21.5274C91.2062 22.4893 90.9006 22.8325 90.2219 23.0044L89.4751 23.2104V23.8281H100.575V16H99.929C99.59 19.605 98.877 23.0044 95.9923 23.0044H94.6344V2.4375ZM72.1636 17.4419V16.5151H67.5816L67.4455 17.4419H72.1636ZM52.5445 23.897H53.9362L57.0927 7.0044H56.6177L60.0797 23.897H61.302L65.4432 3.9829C65.8844 1.8882 66.1219 1.1675 66.9367 0.961L67.5816 0.7896V0.1714H62.7955V0.7896L63.5084 0.9268C64.5265 1.1328 64.764 1.751 64.289 4.2915L61.6075 17.6479H62.0149L59.2992 3.5708C59.0274 2.2315 58.858 1.1328 59.9783 0.9268L60.7247 0.7896V0.1714H54.1737V0.7896L54.6149 0.892599C55.2941 1.064 55.3959 1.4765 55.6672 2.7812L56.7195 7.897L56.5158 4.8066L54.1737 17.3047H54.4793L51.7297 3.5708C51.4242 2.1631 51.3223 1.0986 52.4084 0.892599L52.9181 0.7896V0.1714H46.2311V0.7896L46.876 0.961C47.4867 1.1328 47.8265 1.4419 48.2339 3.3301L52.5445 23.897ZM34.4186 11.9483L35.4709 11.9829C36.9982 12.0171 37.4394 12.6011 37.745 16.3437H38.3899V6.7983H37.745C37.3718 9.7856 36.9644 11.0557 35.5047 11.0903L34.4186 11.1245V0.9956H36.7607C39.3742 0.9956 39.9515 4.3946 40.3246 8H40.9695V0.1714H29.2593V0.7896L30.0061 0.9956C30.7866 1.2017 30.9903 1.6826 30.9903 2.4722V21.5274C30.9903 22.4893 30.6848 22.8325 30.0061 23.0044L29.2593 23.2105V23.8281H41.3093V16H40.664C40.257 19.5708 39.8158 23.0044 36.7607 23.0044H34.4186V11.9483ZM13.0681 23.8281H20.0264V23.2104L19.2459 23.0386C18.6348 22.9014 18.2274 22.4893 18.2274 21.5274V12.1548H23.3528V21.5274C23.3528 22.4893 22.9459 22.9014 22.3348 23.0386L21.5542 23.2104V23.8281H28.5125V23.2104L27.7658 23.0044C27.0871 22.8325 26.7811 22.4546 26.7811 21.4936V2.4375C26.7811 1.4765 27.0871 1.1675 27.7658 0.9956L28.5125 0.7896V0.1714H21.5542V0.7896L22.3348 0.9956C22.9116 1.1675 23.3528 1.4077 23.3528 2.4033V11.2275H18.2274V2.4033C18.2274 1.4419 18.601 1.1675 19.2459 0.9956L20.0264 0.7896V0.1714H13.0681V0.7896L13.8148 0.9956C14.494 1.2017 14.7991 1.4765 14.7991 2.4375V21.5274C14.7991 22.4893 14.494 22.8325 13.8148 23.0044L13.0681 23.2104V23.8281ZM7.8746 0.9956H8.6218C10.726 0.9956 11.4389 4.3946 11.6764 8H12.3213V0.1714H0V8H0.64491C0.88242 4.3946 1.59537 0.9956 3.69956 0.9956H4.44632V21.5274C4.44632 22.4893 4.14121 22.8325 3.46205 23.0044L2.57964 23.2104V23.8281H9.9116V23.2104L8.8593 22.9702C8.2144 22.7983 7.8746 22.5923 7.8746 21.5274V0.9956Z" fill="#949CB2"/>
</svg>
